<svg width="1005" height="775" viewBox="0 0 1005 775" fill="none" xmlns="http://www.w3.org/2000/svg">
<path d="M119.651 78.8496L118.772 79.6312C117.41 80.8414 115.206 79.7422 115.209 77.9207C115.214 73.388 114.503 69.1276 111.805 71.5262C107.097 75.711 104.481 91.4029 101.343 85.1262C98.2041 78.8496 97.1579 77.2808 90.8807 83.0343C84.6035 88.7879 86.6959 78.8485 83.5573 80.9414C81.7454 82.1497 76.5558 85.6093 72.2344 88.4902C70.705 89.5098 68.7412 88.1095 69.2421 86.341C76.3071 61.3981 91.7517 21.2017 112.851 27.0626C132.729 34.909 122.267 132.728 141.621 107.619C151.701 94.5422 153.129 44.6386 169.868 52.1712C198.91 61.8517 191.229 144.481 227.544 226.107C228.368 227.958 231.777 227.533 233.214 226.105C234.518 224.809 236.368 224.224 238.917 225.317C246.241 228.455 243.102 231.594 249.902 225.317C256.703 219.039 256.18 234.732 260.364 226.886C264.549 219.039 260.364 208.054 270.826 215.901C281.288 223.747 283.381 228.455 284.95 221.132C286.519 213.808 286.519 214.855 290.704 217.993C294.724 221.008 295.365 224.506 298.656 218.748C298.927 218.273 298.985 217.721 298.815 217.201C290.507 191.637 272.854 132.207 266.642 92.4498C260.364 52.2759 248.333 40.8375 243.102 40.14C230.722 39.4425 199.79 40.0354 175.099 47.9865" stroke="currentColor" stroke-width="5" stroke-linecap="round"/>
<path d="M447.724 329.413C403.795 345.554 353.943 400.864 484.25 481.111" stroke="currentColor" stroke-width="5" stroke-linecap="round"/>
<path d="M556.826 322.599C586.07 318.666 663.138 336.363 624.089 416.495C619.377 426.163 602.252 445.205 571.449 444.025C531.969 442.513 510.685 482.699 497.85 502.035" stroke="currentColor" stroke-width="5" stroke-linecap="round"/>
<path d="M568.992 354.522C542.119 374.822 489.955 440.863 496.286 542.627C502.617 644.39 503.21 658.371 502.715 652.64" stroke="currentColor" stroke-width="5" stroke-linecap="round"/>
<path d="M530.282 461.234V544.93" stroke="currentColor" stroke-width="5" stroke-linecap="round"/>
<path d="M468.557 471.696V551.207" stroke="currentColor" stroke-width="5" stroke-linecap="round"/>
<path d="M485.296 479.019C483.482 451.467 473.618 376.488 448.679 296.981" stroke="currentColor" stroke-width="5" stroke-linecap="round"/>
<path d="M538.673 381.723C538.336 367.66 542.005 334.59 559.371 314.806C581.078 290.076 583.5 270.566 583.5 224.5" stroke="currentColor" stroke-width="5" stroke-linecap="round"/>
<path d="M531 242.709C539.205 241.239 553.152 231.44 543.306 204" stroke="currentColor" stroke-width="5" stroke-linecap="round"/>
<path d="M412.063 199.685C412.375 205.243 415.534 216.582 425.663 217.47" stroke="currentColor" stroke-width="5" stroke-linecap="round"/>
<path d="M425.663 242.579C405.847 231.464 374.041 204.159 405.351 183.853C409.645 180.867 419.719 179.076 425.663 195.797" stroke="currentColor" stroke-width="5" stroke-linecap="round"/>
<path d="M441.114 60.3219C330.527 71.7676 364.317 155.209 395.036 195.5C401.311 181.686 413.663 181.193 419.056 182.672C424.154 104.921 472.813 115.413 496.506 130.377C545.917 128.404 558.27 147.974 558.27 158.005C579.687 144.558 597.824 160.345 599.295 163.799C654.196 2.76973 516.277 28.2542 441.114 60.3219Z" fill="currentColor"/>
<path d="M496.281 207.008C501.193 207.008 505.174 202.793 505.174 197.593C505.174 192.392 501.193 188.177 496.281 188.177C491.37 188.177 487.389 192.392 487.389 197.593C487.389 202.793 491.37 207.008 496.281 207.008Z" fill="currentColor"/>
<path d="M573.302 204.227C577.318 205.854 582.157 203.267 584.11 198.447C586.064 193.628 584.391 188.401 580.375 186.774C576.359 185.146 571.52 187.734 569.567 192.553C567.613 197.372 569.286 202.599 573.302 204.227Z" fill="currentColor"/>
<path d="M538.652 190.269H520.867" stroke="currentColor" stroke-width="5" stroke-linecap="round"/>
<path d="M457 188.5L423.571 190.269" stroke="currentColor" stroke-width="5" stroke-linecap="round"/>
<path d="M455.663 180L418.663 182" stroke="currentColor" stroke-width="5" stroke-linecap="round"/>
<path d="M404.739 364.984C302.071 421.593 183.28 572.459 353.133 755.215" stroke="currentColor" stroke-width="5" stroke-linecap="round"/>
<path d="M392.185 667.334C373.379 636.671 373.052 630.946 371.261 592.008" stroke="currentColor" stroke-width="5" stroke-linecap="round"/>
<path d="M679.889 477.973C664.243 526.614 667.854 582.294 671.941 637.518" stroke="currentColor" stroke-width="5" stroke-linecap="round"/>
<path d="M545.976 281.288C540.089 274.973 523.267 266.13 503.082 281.288" stroke="currentColor" stroke-width="5" stroke-linecap="round"/>
<path d="M689.304 436.125C686.22 429.101 660.083 373.21 632.81 358.706" stroke="currentColor" stroke-width="5" stroke-linecap="round"/>
<path d="M93.4961 407.878L90.8806 393.754L158.883 370.215L161.499 379.107L199.162 367.076L201.254 372.307L93.4961 407.878Z" fill="currentColor"/>
<path d="M68.7901 595.02C40.3753 537.523 13.8997 402.857 3.49872 338.287C3.26303 336.824 4.65653 335.681 6.07195 336.12L16.7757 339.442C17.6063 339.7 18.5082 339.392 19.0069 338.679L24.5273 330.793C25.0854 329.996 26.1366 329.716 27.0173 330.13L32.3649 332.647C33.4432 333.154 34.7231 332.612 35.1088 331.484L40.1248 316.822C40.6094 315.406 42.4212 315.004 43.4588 316.084L52.5385 325.526C53.4243 326.448 54.9352 326.313 55.6442 325.25L57.535 322.413C58.0656 321.618 59.0854 321.309 59.9683 321.677L62.8318 322.87C63.8698 323.302 65.0602 322.794 65.4661 321.746L68.6949 313.405C69.4024 311.577 72.0347 311.747 72.4836 313.654C90.2012 388.947 104.071 482.471 129.476 566.625C130.024 568.441 127.975 569.942 126.412 568.867L125.922 568.53C124.595 567.618 122.789 568.568 122.789 570.178V570.741C122.789 572.284 121.115 573.246 119.782 572.468L106.401 564.663C105.209 563.967 103.687 564.66 103.429 566.016L102.256 572.172C102.043 573.29 100.941 574.005 99.8334 573.745L94.8524 572.573C93.8038 572.326 92.7482 572.954 92.4648 573.993L90.5335 581.075C90.1834 582.358 88.7007 582.949 87.5641 582.257L80.0241 577.667C78.9024 576.984 77.4383 577.55 77.0662 578.809L72.386 594.65C71.879 596.366 69.5828 596.624 68.7901 595.02Z" stroke="currentColor" stroke-width="5" stroke-linecap="round"/>
<path d="M26.0163 358.183C28.1087 365.681 31.2473 380.886 27.0625 381.723C21.8315 382.769 23.9239 368.645 33.8628 363.414C43.8016 358.183 35.9552 375.969 42.7555 374.399C49.5557 372.83 57.9253 352.429 53.2174 352.429C48.5095 352.429 45.894 373.876 58.4484 373.353C71.0027 372.83 67.3411 349.814 64.7256 353.998C62.1101 358.183 65.2487 368.122 74.6644 370.738" stroke="currentColor" stroke-width="3" stroke-linecap="round"/>
<path d="M71.0032 545.976C70.8288 551.032 72.5725 558.112 80.942 545.976C83.0342 543.36 82.7203 540.222 79.3725 542.314C75.1877 544.93 80.9418 553.299 87.7421 549.637C94.5423 545.976 103.435 536.037 97.1578 537.083C90.8807 538.129 95.0654 547.545 102.912 544.406" stroke="currentColor" stroke-width="3" stroke-linecap="round"/>
<path d="M60.0176 524.528C67.1666 523.831 82.8246 521.076 88.2649 515.636" stroke="currentColor" stroke-width="3" stroke-linecap="round"/>
<path d="M64.7256 508.312C70.3053 507.615 82.3017 505.592 85.6495 503.081" stroke="currentColor" stroke-width="3" stroke-linecap="round"/>
<path d="M92.973 501.512V493.666" stroke="currentColor" stroke-width="3" stroke-linecap="round"/>
<path d="M98.7269 501.512V493.143" stroke="currentColor" stroke-width="3" stroke-linecap="round"/>
<path d="M49.0325 470.126C59.4944 467.685 81.1507 462.384 84.08 460.71" stroke="currentColor" stroke-width="3" stroke-linecap="round"/>
<path d="M38.5707 436.648C47.289 434.904 67.0272 430.266 76.2337 425.663" stroke="currentColor" stroke-width="3" stroke-linecap="round"/>
<path d="M36.4781 429.848C45.8939 429.848 65.5624 424.407 73.095 419.386" stroke="currentColor" stroke-width="3" stroke-linecap="round"/>
<path d="M103.435 451.818L212.15 414.745C214.789 413.845 216.182 410.96 215.246 408.334L200.731 367.599" stroke="currentColor" stroke-width="5" stroke-linecap="round"/>
<path d="M86.1725 371.784L152.083 350.337" stroke="currentColor" stroke-width="5" stroke-linecap="round"/>
<path d="M159.479 373.794L138.926 308.027C138.103 305.393 139.57 302.589 142.204 301.764L246.213 269.171C248.834 268.35 251.627 269.797 252.468 272.411L273.473 337.708C274.321 340.346 272.863 343.17 270.222 344.006L165.76 377.07C163.121 377.905 160.305 376.437 159.479 373.794Z" stroke="currentColor" stroke-width="5" stroke-linecap="round"/>
<path d="M101.343 424.093C103.609 420.955 109.084 414.887 112.851 415.724C117.559 416.77 119.128 416.77 123.836 411.016C128.544 405.262 129.59 415.201 137.436 411.016C145.283 406.831 153.652 398.985 157.837 403.169C161.185 406.517 164.812 401.775 166.207 398.985" stroke="currentColor" stroke-width="3" stroke-linecap="round"/>
<path d="M160.914 344.12C160.129 341.459 159.071 338.108 158.108 335.599C157.514 334.052 158.531 331.254 160.098 330.718L174.3 325.859C175.326 325.508 176.446 326.04 176.823 327.057L180.664 337.429C181.054 338.483 180.5 339.652 179.436 340.015L163.501 345.467C162.414 345.839 161.239 345.222 160.914 344.12Z" stroke="currentColor" stroke-width="3"/>
<path d="M235.779 344.583L238.917 329.413" stroke="currentColor" stroke-width="3" stroke-linecap="round"/>
<path d="M243.102 335.689C246.24 334.119 252.518 337.783 248.856 339.351C247.413 339.968 242.579 332.027 256.702 332.55" stroke="currentColor" stroke-width="3" stroke-linecap="round"/>
<path d="M219.039 341.992C222.178 340.422 228.455 344.086 224.793 345.654C223.351 346.271 218.516 338.33 232.64 338.853" stroke="currentColor" stroke-width="3" stroke-linecap="round"/>
<path d="M108.143 26.0143C123.836 20.7833 159.407 11.3643 176.145 15.5523C185.038 17.7774 194.279 36.1277 192.884 43.7999" stroke="currentColor" stroke-width="5" stroke-linecap="round"/>
<path d="M130.113 32.2934C143.19 32.2932 162.754 23.4007 167.776 25.4931" stroke="currentColor" stroke-width="3" stroke-linecap="round"/>
<path d="M130.636 38.571C136.564 38.571 149.886 37.4202 155.744 32.8169" stroke="currentColor" stroke-width="3" stroke-linecap="round"/>
<path d="M200.208 69.9567C213.983 68.7362 242.474 65.8765 246.241 64.2026" stroke="currentColor" stroke-width="3" stroke-linecap="round"/>
<path d="M203.869 77.803C215.726 75.7106 241.742 71.6304 250.948 72.0489" stroke="currentColor" stroke-width="3" stroke-linecap="round"/>
<path d="M205.439 102.911C216.424 104.481 242.683 95.9018 245.194 97.1572" stroke="currentColor" stroke-width="3" stroke-linecap="round"/>
<path d="M205.962 110.76C222.178 110.759 242.056 99.2502 256.179 101.868" stroke="currentColor" stroke-width="3" stroke-linecap="round"/>
<path d="M750.541 83.6599L753.132 74.4097C753.419 73.3818 754.464 72.7611 755.504 72.9994L845.06 93.5123C846.237 93.7818 846.908 95.0244 846.489 96.1564L842.668 106.473C842.315 107.426 841.305 107.962 840.318 107.721L751.993 86.142C750.894 85.8736 750.237 84.7487 750.541 83.6599Z" fill="currentColor"/>
<path d="M761.492 55.312L850.35 74.4584C853.388 75.1129 855.1 78.351 853.929 81.2297L825.911 150.125C824.968 152.445 822.453 153.709 820.028 153.082L733.244 130.638" stroke="currentColor" stroke-width="5" stroke-linecap="round"/>
<path d="M769.338 28.6344C761.402 38.2414 739.082 115.181 724.434 149.279C724.378 149.41 724.305 149.536 724.221 149.651C716.494 160.333 715.439 149.432 711.797 142.669C708.136 135.868 692.443 151.039 685.643 153.131C678.842 155.224 686.689 139.531 676.227 142.669C665.765 145.808 665.765 141.623 665.242 137.438C664.914 134.816 658.575 137.157 653.413 139.636C651.873 140.375 650.09 139.044 650.462 137.377C660.79 91.0357 684.962 34.6587 697.078 9.49354C697.643 8.31958 699.157 8.04312 700.319 8.63339C705.797 11.4173 709.167 5.45901 714.413 3.52596C724.352 -0.13663 717.552 16.6034 726.444 14.5107C735.337 12.418 736.906 14.5107 737.952 16.6034C738.999 18.6961 743.706 17.6493 749.461 11.3721C755.215 5.09497 757.83 6.14116 758.876 14.5107C759.922 22.8803 766.723 13.9876 770.384 17.6493C773.314 20.5787 770.908 26.1932 769.338 28.6344Z" stroke="currentColor" stroke-width="5" stroke-linecap="round"/>
<path d="M679.366 95.5903C696.105 100.821 728.746 99.0428 731.676 102.391" stroke="currentColor" stroke-width="3" stroke-linecap="round"/>
<path d="M702.905 107.622C706.044 106.924 713.576 105.948 718.598 107.622" stroke="currentColor" stroke-width="3" stroke-linecap="round"/>
<path d="M688.781 67.3433L723.306 69.9588" stroke="currentColor" stroke-width="3" stroke-linecap="round"/>
<path d="M694.535 58.4507C706.218 59.3225 731.152 61.5893 737.429 63.6817" stroke="currentColor" stroke-width="3" stroke-linecap="round"/>
<path d="M699.766 119.13L704.997 114.945" stroke="currentColor" stroke-width="3" stroke-linecap="round"/>
<path d="M712.32 115.991L710.228 121.745" stroke="currentColor" stroke-width="3" stroke-linecap="round"/>
<path d="M718.598 118.084L718.075 121.746" stroke="currentColor" stroke-width="3" stroke-linecap="round"/>
<path d="M724.875 117.561V121.222" stroke="currentColor" stroke-width="3" stroke-linecap="round"/>
<path d="M703.428 28.1109C700.29 31.4239 695.163 37.7359 699.767 36.4805C705.04 35.0423 714.267 27.4536 714.967 35.0528C715.083 36.3181 713.533 37.3943 712.807 36.3515C712.268 35.5779 713.192 34.6359 718.075 33.865C728.014 32.2957 719.644 37.5267 729.06 36.4805C738.476 35.4343 745.276 22.3568 741.614 26.0185C737.953 29.6802 733.768 39.6188 743.707 39.0957C753.645 38.5726 755.215 26.5413 752.076 32.8185C748.938 39.0957 752.076 38.5726 752.076 40.665" stroke="currentColor" stroke-width="3" stroke-linecap="round"/>
<path d="M743.707 101.868C745.625 100.822 751.239 100.508 758.353 107.622C767.246 116.514 779.8 105.006 783.462 110.237C787.124 115.468 786.601 115.991 791.308 114.422" stroke="currentColor" stroke-width="3" stroke-linecap="round"/>
<path d="M693.455 722.497L694.69 713.85C694.901 712.372 696.167 711.274 697.66 711.274H810.342C812.168 711.274 813.57 712.891 813.312 714.699L812.077 723.345C811.866 724.823 810.6 725.921 809.107 725.921H696.425C694.599 725.921 693.197 724.304 693.455 722.497Z" fill="currentColor"/>
<path d="M815.478 695.81L806.28 770.367C806.094 771.871 804.817 773 803.302 773H689.602C687.784 773 686.384 771.396 686.63 769.595L696.797 695.038C696.999 693.551 698.269 692.443 699.769 692.443H812.501C814.303 692.443 815.699 694.021 815.478 695.81Z" stroke="currentColor" stroke-width="3" stroke-linecap="round"/>
<path d="M700.289 745.276C703.777 742.137 712.007 736.802 717.028 740.568C723.306 745.276 728.013 736.906 733.768 742.137C739.522 747.368 754.691 735.86 760.969 742.137C765.99 747.159 771.431 744.23 773.523 742.137" stroke="currentColor" stroke-width="3" stroke-linecap="round"/>
<path d="M717.552 690.873L723.575 646.857C723.986 643.854 721.652 641.179 718.621 641.179H609.953C607.461 641.179 605.35 643.014 605.002 645.481L594.917 716.992C594.488 720.033 596.877 722.738 599.948 722.689L692.443 721.213" stroke="currentColor" stroke-width="5" stroke-linecap="round"/>
<path d="M610.574 689.168L611.682 679.567C611.798 678.558 612.653 677.796 613.668 677.796H630.389C631.645 677.796 632.59 678.941 632.353 680.174L630.506 689.775C630.325 690.716 629.501 691.397 628.542 691.397H612.561C611.365 691.397 610.437 690.355 610.574 689.168Z" stroke="currentColor" stroke-width="3" stroke-linecap="round"/>
<path d="M674.657 711.275L684.596 698.72" stroke="currentColor" stroke-width="3" stroke-linecap="round"/>
<path d="M656.349 706.043C657.919 704.3 661.999 701.335 665.765 703.428C670.473 706.043 669.427 711.274 664.196 710.228C658.965 709.182 663.673 702.382 674.658 705.52" stroke="currentColor" stroke-width="3" stroke-linecap="round"/>
<path d="M686.689 705.52C688.258 706.915 692.024 708.659 694.535 704.474" stroke="currentColor" stroke-width="3" stroke-linecap="round"/>
<path d="M767.891 400.554C765.036 404.457 765.628 414.525 790.785 423.571" stroke="currentColor" stroke-width="5" stroke-linecap="round"/>
<path d="M798.454 394.277C790.994 394.256 783.766 393.766 766.824 388.246C762.835 386.99 760.08 383.87 759.203 382.467C756.036 376.985 762.334 372.143 768.005 372.311C774.189 372.497 786.301 373.238 800.733 374.868" stroke="currentColor" stroke-width="5" stroke-linecap="round"/>
<path d="M798.109 394.048C790.646 394.026 783.416 393.535 766.467 388C762.602 389.398 762.1 396.053 768.221 400.207C772.087 402.84 779.085 406.07 790.646 409.97" stroke="currentColor" stroke-width="5" stroke-linecap="round"/>
<path d="M669.95 599.855C699.941 624.091 757.493 622.327 781.37 559.053C802.293 503.605 809.617 455.654 810.663 432.986" stroke="currentColor" stroke-width="5" stroke-linecap="round"/>
<path d="M696.105 554.868C696.628 551.73 707.09 507.266 723.829 490.527" stroke="currentColor" stroke-width="5" stroke-linecap="round"/>
<path d="M810.14 428.802C814.499 416.945 820.602 389.36 810.14 373.876" stroke="currentColor" stroke-width="5" stroke-linecap="round"/>
<path d="M778.23 419.387L776.32 477.182C776.241 479.556 773.567 480.901 771.614 479.549L771.475 479.453C770.248 478.604 768.584 478.785 767.569 479.879L764.584 483.093C763.455 484.309 761.552 484.377 760.339 483.245L756.673 479.824C755.548 478.773 753.809 478.745 752.651 479.759L747.727 484.067C746.867 484.82 745.653 485.019 744.598 484.579L735.35 480.725C734.369 480.317 733.246 480.457 732.396 481.095L723.521 487.75C722.232 488.717 720.409 488.493 719.393 487.242L716.365 483.516C715.297 482.201 713.353 482.031 712.072 483.141L710.462 484.536C708.723 486.043 706.032 485.186 705.658 482.916C692.54 403.212 719.766 200.973 822.171 216.948C839.782 219.563 873.435 241.847 867.158 310.059C861.016 376.801 876.075 395.901 884.893 397.346C885.273 397.408 885.685 397.56 886.025 397.38C886.818 396.961 887.948 394.959 888.605 389.046C889.641 379.72 896.323 321.121 920.344 350.009C920.778 350.531 921.037 351.23 921.037 351.909V422.574C921.037 424.755 923.292 426.207 925.278 425.305L931.242 422.594C932.066 422.219 933.015 422.237 933.825 422.642L941.488 426.473C942.43 426.944 943.551 426.886 944.44 426.321L963.504 414.189C964.897 413.302 966.745 413.709 967.638 415.098L973.866 424.786C974.743 426.149 976.543 426.57 977.933 425.736L986.246 420.748C987.46 420.02 989.037 420.502 989.636 421.785V421.785C990.55 423.743 993.348 423.571 993.947 421.496C1000.14 400.062 1007 361.703 994.794 343.014C990.694 336.737 933.068 331.331 910.575 338.306" stroke="currentColor" stroke-width="5" stroke-linecap="round"/>
<path d="M822.694 216.424C846.582 216.773 901.736 215.559 919.467 228.455C948.238 249.379 932.022 322.09 941.961 334.121" stroke="currentColor" stroke-width="5" stroke-linecap="round"/>
<path d="M785.031 361.322C790.088 330.11 805.432 270.826 856.696 244.148" stroke="currentColor" stroke-width="5" stroke-linecap="round"/>
<path d="M869.773 235.255C881.456 235.255 906.495 235.778 913.19 237.871" stroke="currentColor" stroke-width="3" stroke-linecap="round"/>
<path d="M875.004 244.148C895.405 244.148 919.467 249.065 921.56 247.81" stroke="currentColor" stroke-width="3" stroke-linecap="round"/>
<path d="M879.189 277.103L923.652 278.672" stroke="currentColor" stroke-width="3" stroke-linecap="round"/>
<path d="M883.374 285.473C892.092 286.519 910.366 287.984 913.713 285.473" stroke="currentColor" stroke-width="3" stroke-linecap="round"/>
<path d="M879.189 317.382L917.375 318.951" stroke="currentColor" stroke-width="3" stroke-linecap="round"/>
<path d="M884.42 324.182C889.825 324.88 901.159 325.856 903.251 324.182" stroke="currentColor" stroke-width="3" stroke-linecap="round"/>
<path d="M942.484 355.045C943.53 363.938 944.995 381.828 942.484 382.246C939.346 382.769 951.9 362.368 955.562 366.553C959.223 370.738 944.576 392.708 961.839 382.246C966.546 378.41 974.707 369.169 969.685 362.891C963.408 355.045 964.454 386.431 968.116 382.246C971.777 378.061 982.239 359.23 985.378 370.215C988.517 381.2 975.962 381.2 980.147 377.015C984.332 372.83 989.563 370.215 992.701 377.015" stroke="currentColor" stroke-width="3" stroke-linecap="round"/>
<path d="M462 217C506.63 242.502 520.443 201.119 520.985 175.076C521.008 173.94 520.055 173.044 518.92 173.098L458.906 175.911C457.839 175.961 457 176.84 457 177.908V189.5" stroke="currentColor" stroke-width="5" stroke-linecap="round"/>
<path d="M586 220.5C546.093 227.8 538.241 200.362 538.004 175.072C537.994 173.94 538.941 173.04 540.073 173.088L594.944 175.413C596.071 175.461 596.935 176.429 596.855 177.554L596 189.5" stroke="currentColor" stroke-width="5" stroke-linecap="round"/>
</svg>
