<svg width="936" height="500" viewBox="0 0 936 500" fill="none" xmlns="http://www.w3.org/2000/svg">
<path d="M226.975 307.286L485.616 262.647C486.6 262.477 487.198 263.694 486.462 264.369L364.934 375.882C364.86 375.949 364.783 376.003 364.692 376.044C354.362 380.625 312.259 363.498 291.395 353.866C290.832 353.607 290.185 353.922 290.02 354.52C284.775 373.58 278.195 391.364 275.227 398.713C275.05 399.152 274.577 399.415 274.165 399.183C267.442 395.404 266.687 358.769 267.192 339.479C267.205 338.967 266.836 338.543 266.329 338.462C250.619 335.948 228.512 321.355 219.269 314.243" stroke="black" stroke-width="5" stroke-linecap="round"/>
<path d="M293.056 351.12C319.63 338.451 386.857 306.72 443.172 281.15" stroke="black" stroke-width="5" stroke-linecap="round"/>
<path d="M272.701 399.463L322.315 367.658" stroke="black" stroke-width="5" stroke-linecap="round"/>
<path d="M284.15 326.949L352.848 302.777" stroke="black" stroke-width="5" stroke-linecap="round"/>
<path d="M245.648 442.203C220.416 455.837 151.535 470.406 77.864 419.612" stroke="black" stroke-width="5" stroke-linecap="round"/>
<path d="M208.28 410.943C166.218 404.663 66.2756 367.105 2.99999 267.118" stroke="black" stroke-width="5" stroke-linecap="round"/>
<path d="M569.195 193.788C551.992 299.866 604.437 395.446 684.857 408.488C765.278 421.531 845.243 347.426 862.447 241.348C879.65 135.27 827.205 39.6907 746.785 26.648C666.364 13.6053 586.399 87.7107 569.195 193.788Z" stroke="black" stroke-width="5"/>
<path d="M602.419 197.231C595.832 237.844 602.097 276.496 617.43 306.14C632.763 335.784 657.064 356.272 686.574 361.058C716.085 365.844 745.615 354.086 769.532 330.808C793.448 307.53 811.607 272.839 818.194 232.226C824.781 191.612 818.516 152.96 803.183 123.316C787.85 93.6726 763.549 73.1845 734.038 68.3983C704.527 63.6122 674.997 75.3701 651.081 98.6484C627.165 121.926 609.005 156.617 602.419 197.231Z" stroke="black" stroke-width="5"/>
<ellipse cx="56.3586" cy="75.9911" rx="56.3586" ry="75.9911" transform="matrix(-0.987103 -0.160089 -0.160089 0.987103 767.787 150.358)" fill="currentColor"/>
<path d="M829.489 388.015C727.715 485.972 614.492 428.724 590.32 367.024C601.084 428.569 674.014 463.487 734.712 464.98C801.501 464.98 884.829 409.64 907.728 359.389C991.996 174.47 863.625 44.3151 799.592 26.0811C919.813 82.6928 938.871 282.734 829.489 388.015Z" fill="currentColor"/>
</svg>
