<svg width="256" height="256" viewBox="0 0 256 256" fill="none" xmlns="http://www.w3.org/2000/svg">
<path d="M104.917 21.696C106.112 22.1013 107.285 22.592 108.427 23.1467L122.112 29.888C123.944 30.7896 125.958 31.2585 128 31.2585C130.042 31.2585 132.056 30.7896 133.888 29.888L147.573 23.1467C154.553 19.7137 162.61 19.1931 169.973 21.6995C177.336 24.2058 183.402 29.5339 186.837 36.512L187.627 38.24L188.299 40.0213L193.205 54.4533C194.539 58.3787 197.621 61.4507 201.536 62.784L215.979 67.6907C219.929 69.0348 223.548 71.2063 226.592 74.0603C229.637 76.9143 232.037 80.385 233.633 84.2407C235.229 88.0964 235.985 92.2482 235.848 96.419C235.712 100.59 234.687 104.683 232.843 108.427L226.112 122.112C225.21 123.944 224.741 125.958 224.741 128C224.741 130.042 225.21 132.056 226.112 133.888L232.843 147.573C234.685 151.316 235.709 155.409 235.844 159.578C235.979 163.748 235.224 167.898 233.628 171.753C232.032 175.607 229.632 179.077 226.588 181.93C223.545 184.783 219.928 186.954 215.979 188.299L201.536 193.205C199.604 193.864 197.849 194.958 196.407 196.403C194.964 197.847 193.873 199.603 193.216 201.536L188.299 215.979C186.954 219.928 184.783 223.545 181.93 226.588C179.077 229.632 175.607 232.032 171.753 233.628C167.898 235.224 163.748 235.979 159.578 235.844C155.409 235.709 151.316 234.685 147.573 232.843L133.888 226.112C132.056 225.21 130.042 224.741 128 224.741C125.958 224.741 123.944 225.21 122.112 226.112L108.427 232.843C104.684 234.685 100.591 235.709 96.4217 235.844C92.2521 235.979 88.1017 235.224 84.2473 233.628C80.393 232.032 76.9234 229.632 74.0701 226.588C71.2169 223.545 69.0457 219.928 67.7013 215.979L62.7947 201.536C62.1345 199.603 61.039 197.847 59.5928 196.405C58.1465 194.962 56.3881 193.871 54.4533 193.216L40.0213 188.299C36.0712 186.955 32.453 184.785 29.4084 181.932C26.3638 179.08 23.9628 175.61 22.3657 171.756C20.7686 167.901 20.0121 163.75 20.1468 159.58C20.2815 155.41 21.3042 151.317 23.1467 147.573L29.888 133.888C30.7896 132.056 31.2585 130.042 31.2585 128C31.2585 125.958 30.7896 123.944 29.888 122.112L23.1467 108.427C21.3042 104.683 20.2815 100.59 20.1468 96.4198C20.0121 92.2497 20.7686 88.0989 22.3657 84.2444C23.9628 80.3899 26.3638 76.9205 29.4084 74.0677C32.453 71.215 36.0712 69.0446 40.0213 67.7013L54.4533 62.7947C56.3884 62.1359 58.1461 61.0411 59.5906 59.5947C61.0351 58.1484 62.1277 56.3893 62.784 54.4533L67.6907 40.0213C68.931 36.3732 70.878 33.0053 73.4203 30.1098C75.9626 27.2144 79.0505 24.8482 82.5075 23.1464C85.9645 21.4446 89.723 20.4406 93.5681 20.1918C97.4133 19.9429 101.27 20.4541 104.917 21.696V21.696ZM165.003 95.6693L107.2 153.483L86.144 128.203C85.481 127.367 84.6575 126.672 83.722 126.16C82.7866 125.647 81.758 125.327 80.6969 125.217C79.6358 125.108 78.5635 125.212 77.5432 125.523C76.5229 125.834 75.5751 126.346 74.7556 127.029C73.9361 127.712 73.2615 128.552 72.7714 129.5C72.2813 130.447 71.9856 131.483 71.9018 132.547C71.818 133.61 71.9477 134.679 72.2833 135.692C72.6189 136.705 73.1536 137.64 73.856 138.443L100.523 170.443C101.234 171.296 102.115 171.993 103.11 172.487C104.105 172.982 105.192 173.263 106.301 173.315C107.411 173.366 108.52 173.185 109.556 172.784C110.592 172.384 111.533 171.771 112.32 170.987L176.32 106.987C177.106 106.254 177.736 105.371 178.174 104.39C178.611 103.408 178.846 102.349 178.865 101.275C178.884 100.201 178.686 99.1338 178.284 98.1376C177.882 97.1415 177.283 96.2366 176.523 95.4769C175.763 94.7173 174.859 94.1184 173.862 93.716C172.866 93.3137 171.799 93.1161 170.725 93.135C169.651 93.154 168.592 93.3891 167.61 93.8263C166.629 94.2636 165.746 94.894 165.013 95.68L165.003 95.6693Z" fill="#00695C"/>
</svg>
